<svg width="270" height="270" viewBox="0 0 270 270" fill="none" xmlns="http://www.w3.org/2000/svg"><circle cx="5.5" cy="5.5" r="5.5" fill="#fff"/><circle cx="5.5" cy="153.5" r="5.5" fill="#fff"/><circle cx="153.5" cy="5.5" r="5.5" fill="#fff"/><circle cx="153.5" cy="153.5" r="5.5" fill="#fff"/><circle cx="5.5" cy="79.5" r="5.5" fill="#fff"/><circle cx="5.5" cy="227.5" r="5.5" fill="#fff"/><circle cx="153.5" cy="79.5" r="5.5" fill="#fff"/><circle cx="153.5" cy="227.5" r="5.5" fill="#fff"/><circle cx="5.5" cy="42.5" r="5.5" fill="#fff"/><circle cx="5.5" cy="190.5" r="5.5" fill="#fff"/><circle cx="153.5" cy="42.5" r="5.5" fill="#fff"/><circle cx="153.5" cy="190.5" r="5.5" fill="#fff"/><circle cx="5.5" cy="116.5" r="5.5" fill="#fff"/><circle cx="5.5" cy="264.5" r="5.5" fill="#fff"/><circle cx="153.5" cy="116.5" r="5.5" fill="#fff"/><circle cx="153.5" cy="264.5" r="5.5" fill="#fff"/><circle cx="42.5" cy="5.5" r="5.5" fill="#fff"/><circle cx="42.5" cy="153.5" r="5.5" fill="#fff"/><circle cx="190.5" cy="5.5" r="5.5" fill="#fff"/><circle cx="190.5" cy="153.5" r="5.5" fill="#fff"/><circle cx="42.5" cy="79.5" r="5.5" fill="#fff"/><circle cx="42.5" cy="227.5" r="5.5" fill="#fff"/><circle cx="190.5" cy="79.5" r="5.5" fill="#fff"/><circle cx="190.5" cy="227.5" r="5.5" fill="#fff"/><circle cx="42.5" cy="42.5" r="5.5" fill="#fff"/><circle cx="42.5" cy="190.5" r="5.5" fill="#fff"/><circle cx="190.5" cy="42.5" r="5.5" fill="#fff"/><circle cx="190.5" cy="190.5" r="5.5" fill="#fff"/><circle cx="42.5" cy="116.5" r="5.5" fill="#fff"/><circle cx="42.5" cy="264.5" r="5.5" fill="#fff"/><circle cx="190.5" cy="116.5" r="5.5" fill="#fff"/><circle cx="190.5" cy="264.5" r="5.5" fill="#fff"/><circle cx="79.5" cy="5.5" r="5.5" fill="#fff"/><circle cx="79.5" cy="153.5" r="5.5" fill="#fff"/><circle cx="227.5" cy="5.5" r="5.5" fill="#fff"/><circle cx="227.5" cy="153.5" r="5.5" fill="#fff"/><circle cx="79.5" cy="79.5" r="5.5" fill="#fff"/><circle cx="79.5" cy="227.5" r="5.5" fill="#fff"/><circle cx="227.5" cy="79.5" r="5.5" fill="#fff"/><circle cx="227.5" cy="227.5" r="5.5" fill="#fff"/><circle cx="79.5" cy="42.5" r="5.5" fill="#fff"/><circle cx="79.5" cy="190.5" r="5.5" fill="#fff"/><circle cx="227.5" cy="42.5" r="5.5" fill="#fff"/><circle cx="227.5" cy="190.5" r="5.5" fill="#fff"/><circle cx="79.5" cy="116.5" r="5.5" fill="#fff"/><circle cx="79.5" cy="264.5" r="5.5" fill="#fff"/><circle cx="227.5" cy="116.5" r="5.5" fill="#fff"/><circle cx="227.5" cy="264.5" r="5.5" fill="#fff"/><circle cx="116.5" cy="5.5" r="5.5" fill="#fff"/><circle cx="116.5" cy="153.5" r="5.5" fill="#fff"/><circle cx="264.5" cy="5.5" r="5.5" fill="#fff"/><circle cx="264.5" cy="153.5" r="5.5" fill="#fff"/><circle cx="116.5" cy="79.5" r="5.5" fill="#fff"/><circle cx="116.5" cy="227.5" r="5.5" fill="#fff"/><circle cx="264.5" cy="79.5" r="5.5" fill="#fff"/><circle cx="264.5" cy="227.5" r="5.5" fill="#fff"/><circle cx="116.5" cy="42.5" r="5.5" fill="#fff"/><circle cx="116.5" cy="190.5" r="5.5" fill="#fff"/><circle cx="264.5" cy="42.5" r="5.5" fill="#fff"/><circle cx="264.5" cy="190.5" r="5.5" fill="#fff"/><circle cx="116.5" cy="116.5" r="5.5" fill="#fff"/><circle cx="116.5" cy="264.5" r="5.5" fill="#fff"/><circle cx="264.5" cy="116.5" r="5.5" fill="#fff"/><circle cx="264.5" cy="264.5" r="5.5" fill="#fff"/></svg>