<svg width="58" height="58" viewBox="0 0 58 58" fill="none" xmlns="http://www.w3.org/2000/svg">
<rect width="8" height="7" transform="matrix(-1 0 0 1 33 0)" fill="#FF503E"/>
<rect width="7" height="7" transform="matrix(-1 0 0 1 29 4)" fill="#FF503E"/>
<rect width="7" height="7" transform="matrix(-1 0 0 1 36 4)" fill="#FF503E"/>
<rect width="7" height="7" transform="matrix(-1 0 0 1 40 11)" fill="#FF503E"/>
<rect width="7" height="7" transform="matrix(-1 0 0 1 25 11)" fill="#FF503E"/>
<rect width="7" height="8" transform="matrix(-1 0 0 1 11 25)" fill="#FF503E"/>
<rect width="7" height="8" transform="matrix(-1 0 0 1 54 25)" fill="#FF503E"/>
<rect width="7" height="7" transform="matrix(-1 0 0 1 51 29)" fill="#FF503E"/>
<rect width="8" height="7" transform="matrix(-1 0 0 1 15 29)" fill="#FF503E"/>
<rect width="7" height="10" transform="matrix(-1 0 0 1 18 33)" fill="#FF503E"/>
<rect width="7" height="10" transform="matrix(-1 0 0 1 47 33)" fill="#FF503E"/>
<rect width="8" height="11" transform="matrix(-1 0 0 1 15 43)" fill="#FF503E"/>
<rect width="7" height="7" transform="matrix(-1 0 0 1 25 47)" fill="#FF503E"/>
<rect width="15" height="7" transform="matrix(-1 0 0 1 22 51)" fill="#FF503E"/>
<rect width="15" height="7" transform="matrix(-1 0 0 1 51 51)" fill="#FF503E"/>
<rect width="14" height="8" transform="matrix(-1 0 0 1 36 43)" fill="#FF503E"/>
<rect width="7" height="7" transform="matrix(-1 0 0 1 40 47)" fill="#FF503E"/>
<rect width="7" height="11" transform="matrix(-1 0 0 1 51 43)" fill="#FF503E"/>
<rect width="22" height="7" transform="matrix(-1 0 0 1 22 18)" fill="#FF503E"/>
<rect width="22" height="7" transform="matrix(-1 0 0 1 58 18)" fill="#FF503E"/>
</svg>
