<svg width="65" height="58" viewBox="0 0 65 58" fill="none" xmlns="http://www.w3.org/2000/svg">
<rect width="8" height="7" transform="matrix(-1 -8.74228e-08 -8.74228e-08 1 11 39)" fill="#FF503E"/>
<rect width="7" height="11" transform="matrix(-1 -8.74228e-08 -8.74228e-08 1 7 43)" fill="#FF503E"/>
<rect width="24" height="8" transform="matrix(-1 -8.74228e-08 -8.74228e-08 1 31 35)" fill="#FF503E"/>
<rect width="12" height="8" transform="matrix(-1 -8.74228e-08 -8.74228e-08 1 46 23)" fill="#FF503E"/>
<rect width="7" height="7" transform="matrix(-1 -8.74228e-08 -8.74228e-08 1 34 39)" fill="#FF503E"/>
<rect x="11" y="15" width="8" height="8" fill="#FF503E"/>
<rect x="31" y="4" width="7" height="8" fill="#FF503E"/>
<rect x="15" y="12" width="8" height="7" fill="#FF503E"/>
<rect x="34" width="8" height="8" fill="#FF503E"/>
<rect x="19" y="15" width="8" height="8" fill="#FF503E"/>
<rect x="38" y="4" width="8" height="8" fill="#FF503E"/>
<rect x="15" y="19" width="8" height="8" fill="#FF503E"/>
<rect x="34" y="8" width="8" height="7" fill="#FF503E"/>
<rect x="42" y="43" width="23" height="7" fill="#FF503E"/>
<rect x="58" y="35" width="23" height="8" transform="rotate(90 58 35)" fill="#FF503E"/>
</svg>
