<svg width="66" height="66" viewBox="0 0 66 66" fill="none" xmlns="http://www.w3.org/2000/svg">
<rect x="10" y="6" width="53" height="7" transform="rotate(90 10 6)" fill="#FF503E"/>
<rect x="62" y="26" width="33" height="7" transform="rotate(90 62 26)" fill="#FF503E"/>
<rect x="6" y="3" width="30" height="7" fill="#FF503E"/>
<rect x="6" y="55" width="53" height="7" fill="#FF503E"/>
<rect width="7" height="6" transform="matrix(-1 -8.74228e-08 -8.74228e-08 1 39 36)" fill="#FF503E"/>
<rect width="10" height="7" transform="matrix(-1 -8.74228e-08 -8.74228e-08 1 36 39)" fill="#FF503E"/>
<rect width="6" height="6" transform="matrix(-1 -8.74228e-08 -8.74228e-08 1 29 36)" fill="#FF503E"/>
<rect width="7" height="7" transform="matrix(-1 -8.74228e-08 -8.74228e-08 1 26 32)" fill="#FF503E"/>
<rect width="7" height="7" transform="matrix(-1 -8.74228e-08 -8.74228e-08 1 23 29)" fill="#FF503E"/>
<rect width="6" height="7" transform="matrix(-1 -8.74228e-08 -8.74228e-08 1 42 29)" fill="#FF503E"/>
<rect width="7" height="6" transform="matrix(-1 -8.74228e-08 -8.74228e-08 1 46 23)" fill="#FF503E"/>
<rect width="7" height="7" transform="matrix(-1 -8.74228e-08 -8.74228e-08 1 49 16)" fill="#FF503E"/>
<rect width="6" height="6" transform="matrix(-1 -8.74228e-08 -8.74228e-08 1 52 10)" fill="#FF503E"/>
<rect width="6" height="7" transform="matrix(-1 -8.74228e-08 -8.74228e-08 1 55 6)" fill="#FF503E"/>
</svg>
