<svg width="58" height="58" viewBox="0 0 58 58" fill="none" xmlns="http://www.w3.org/2000/svg">
<rect x="6.44446" y="19.3333" width="19.3333" height="6.44444" transform="rotate(90 6.44446 19.3333)" fill="#FF503E"/>
<rect width="6.44444" height="6.44444" transform="matrix(-4.37114e-08 1 1 4.37114e-08 12.8889 3.22229)" fill="#FF503E"/>
<rect width="6.44444" height="6.44444" transform="matrix(-4.37114e-08 1 1 4.37114e-08 3.22229 12.8889)" fill="#FF503E"/>
<rect width="6.44444" height="6.44444" transform="matrix(-4.37114e-08 1 1 4.37114e-08 6.44446 6.44446)" fill="#FF503E"/>
<rect x="51.5555" y="6.44446" width="6.44444" height="6.44444" transform="rotate(90 51.5555 6.44446)" fill="#FF503E"/>
<rect x="45.1111" y="3.22229" width="6.44444" height="6.44444" transform="rotate(90 45.1111 3.22229)" fill="#FF503E"/>
<rect x="54.7777" y="12.8889" width="6.44444" height="6.44444" transform="rotate(90 54.7777 12.8889)" fill="#FF503E"/>
<rect width="6.44444" height="6.44444" transform="matrix(4.37114e-08 -1 -1 -4.37114e-08 51.5555 51.5555)" fill="#FF503E"/>
<rect width="6.44444" height="6.44444" transform="matrix(4.37114e-08 -1 -1 -4.37114e-08 45.1111 54.7777)" fill="#FF503E"/>
<rect width="6.44444" height="6.44444" transform="matrix(4.37114e-08 -1 -1 -4.37114e-08 54.7777 45.1111)" fill="#FF503E"/>
<rect x="6.44446" y="51.5555" width="6.44444" height="6.44444" transform="rotate(-90 6.44446 51.5555)" fill="#FF503E"/>
<rect x="12.8889" y="54.7777" width="6.44444" height="6.44444" transform="rotate(-90 12.8889 54.7777)" fill="#FF503E"/>
<rect x="3.22229" y="45.1111" width="6.44444" height="6.44444" transform="rotate(-90 3.22229 45.1111)" fill="#FF503E"/>
<rect x="58" y="19.3333" width="19.3333" height="6.44444" transform="rotate(90 58 19.3333)" fill="#FF503E"/>
<rect x="19.3333" width="19.3333" height="6.44444" fill="#FF503E"/>
<rect x="19.3333" y="51.5555" width="19.3333" height="6.44444" fill="#FF503E"/>
<rect x="19.3333" y="17.7223" width="6.44444" height="6.44444" fill="#FF503E"/>
<rect x="12.8889" y="30.6111" width="6.44444" height="6.44444" fill="#FF503E"/>
<rect x="38.6667" y="30.6111" width="6.44444" height="6.44444" fill="#FF503E"/>
<rect x="32.2223" y="37.0555" width="6.44444" height="6.44444" fill="#FF503E"/>
<rect x="25.7777" y="37.0555" width="6.44444" height="6.44444" fill="#FF503E"/>
<rect x="19.3333" y="37.0555" width="6.44444" height="6.44444" fill="#FF503E"/>
<rect x="32.2223" y="17.7223" width="6.44444" height="6.44444" fill="#FF503E"/>
</svg>
