<svg width="66" height="58" viewBox="0 0 66 58" fill="none" xmlns="http://www.w3.org/2000/svg">
<rect x="15" y="29" width="36" height="7" fill="#FF503E"/>
<rect x="19" y="40" width="29" height="7" fill="#FF503E"/>
<rect x="11" width="44" height="7" fill="#FF503E"/>
<rect x="15" y="4" width="29" height="7" transform="rotate(90 15 4)" fill="#FF503E"/>
<rect x="58" y="4" width="29" height="7" transform="rotate(90 58 4)" fill="#FF503E"/>
<rect x="15" y="29" width="7" height="7" transform="rotate(90 15 29)" fill="#FF503E"/>
<rect width="7" height="7" transform="matrix(4.37114e-08 1 1 -4.37114e-08 51 29)" fill="#FF503E"/>
<rect x="11" y="36" width="7" height="7" transform="rotate(90 11 36)" fill="#FF503E"/>
<rect width="7" height="7" transform="matrix(4.37114e-08 1 1 -4.37114e-08 55 36)" fill="#FF503E"/>
<rect x="8" y="43" width="11" height="8" transform="rotate(90 8 43)" fill="#FF503E"/>
<rect width="11" height="8" transform="matrix(4.37114e-08 1 1 -4.37114e-08 58 43)" fill="#FF503E"/>
<rect x="62" y="51" width="7" height="58" transform="rotate(90 62 51)" fill="#FF503E"/>
</svg>
