<svg width="25" height="26" viewBox="0 0 25 26" fill="none" xmlns="http://www.w3.org/2000/svg">
<path d="M17.3385 11.0527C17.0915 10.3816 16.7063 9.76972 16.208 9.2567C15.7097 8.74369 15.1093 8.34093 14.4456 8.07446" stroke="white" stroke-width="2" stroke-linecap="round"/>
<path d="M21.4299 10.437C21.0118 8.87664 20.1904 7.45381 19.0481 6.31154C17.9058 5.16926 16.483 4.34779 14.9226 3.92969" stroke="white" stroke-width="2" stroke-linecap="round"/>
<path fill-rule="evenodd" clip-rule="evenodd" d="M10.0306 9.38622C10.4432 10.8768 9.97917 12.4319 8.96243 13.3904C8.76966 13.5722 8.70753 13.866 8.85898 14.0834C9.18136 14.5462 9.54801 14.9861 9.95913 15.3975C10.3696 15.8084 10.8085 16.1748 11.2702 16.4971C11.4882 16.6493 11.7829 16.5861 11.9643 16.3918C12.9213 15.3669 14.4809 14.8978 15.9756 15.3121C17.9903 15.8706 19.1242 17.8224 18.5083 19.6718C16.7034 25.0911 9.75484 19.7196 7.69757 17.6608C5.59058 15.5522 0.301642 8.64355 5.67423 6.85164C7.52221 6.23525 9.47263 7.37003 10.0306 9.38622Z" stroke="white" stroke-width="2"/>
</svg>
