<svg width="32" height="32" viewBox="0 0 32 32" fill="none" xmlns="http://www.w3.org/2000/svg">
<path d="M25.4 6.54658C24.1776 5.31182 22.7216 4.33281 21.1169 3.66665C19.5121 3.0005 17.7908 2.66053 16.0533 2.66658C8.77334 2.66658 2.84 8.59992 2.84 15.8799C2.84 18.2132 3.45334 20.4799 4.6 22.4799L2.73334 29.3333L9.73334 27.4933C11.6667 28.5466 13.84 29.1066 16.0533 29.1066C23.3333 29.1066 29.2667 23.1733 29.2667 15.8932C29.2667 12.3599 27.8933 9.03992 25.4 6.54658ZM16.0533 26.8666C14.08 26.8666 12.1467 26.3333 10.4533 25.3333L10.0533 25.0933L5.89334 26.1866L7 22.1333L6.73334 21.7199C5.637 19.9692 5.05486 17.9456 5.05334 15.8799C5.05334 9.82658 9.98667 4.89325 16.04 4.89325C18.9733 4.89325 21.7333 6.03992 23.8 8.11992C24.8233 9.13854 25.6343 10.3501 26.1859 11.6845C26.7375 13.0188 27.0187 14.4494 27.0133 15.8932C27.04 21.9466 22.1067 26.8666 16.0533 26.8666ZM22.08 18.6532C21.7467 18.4932 20.12 17.6933 19.8267 17.5732C19.52 17.4666 19.3067 17.4132 19.08 17.7332C18.8533 18.0666 18.2267 18.8132 18.04 19.0266C17.8533 19.2533 17.6533 19.2799 17.32 19.1066C16.9867 18.9466 15.92 18.5866 14.6667 17.4666C13.68 16.5866 13.0267 15.5066 12.8267 15.1733C12.64 14.8399 12.8 14.6666 12.9733 14.4932C13.12 14.3466 13.3067 14.1066 13.4667 13.9199C13.6267 13.7332 13.6933 13.5866 13.8 13.3732C13.9067 13.1466 13.8533 12.9599 13.7733 12.7999C13.6933 12.6399 13.0267 11.0133 12.76 10.3466C12.4933 9.70658 12.2133 9.78658 12.0133 9.77325H11.3733C11.1467 9.77325 10.8 9.85325 10.4933 10.1866C10.2 10.5199 9.34667 11.3199 9.34667 12.9466C9.34667 14.5733 10.5333 16.1466 10.6933 16.3599C10.8533 16.5866 13.0267 19.9199 16.3333 21.3466C17.12 21.6933 17.7333 21.8933 18.2133 22.0399C19 22.2933 19.72 22.2532 20.2933 22.1732C20.9333 22.0799 22.2533 21.3732 22.52 20.5999C22.8 19.8266 22.8 19.1733 22.7067 19.0266C22.6133 18.8799 22.4133 18.8132 22.08 18.6532Z" fill="black"/>
</svg>
